<?xml version="1.0" encoding="utf-8"?>
<svg version="1.1" xmlns="http://www.w3.org/2000/svg" xmlns:xlink="http://www.w3.org/1999/xlink" x="0px" y="0px"
     viewBox="0 0 32 32" style="enable-background:new 0 0 32 32;" xml:space="preserve">
<style type="text/css">
	.Blue{fill:#1177D7;}
	.Green{fill:#039C23;}
	.Yellow{fill:#FFB115;}
	.Black{fill:#727272;}
	.st0{opacity:0.5;}
</style>
<g>
	<path class="Blue" d="M28,10H4c-1.1,0-2,0.9-2,2v14c0,1.1,0.9,2,2,2h24c1.1,0,2-0.9,2-2V12C30,10.9,29.1,10,28,10z M28,26H4V12h24V26z
		 M6,22h10v2H6V22z M20,18h-2v3h-3v2h3v3h2v-3h3v-2h-3V18z"/>
	<path class="Blue" d="M24,8h2c0-3.3-2.7-6-6-6H8C4.7,2,2,4.7,2,8h2c0-2.2,1.8-4,4-4h12C22.2,4,24,5.8,24,8z"/>
	<path class="Blue" d="M26,6h2c0-4.4-3.6-8-8-8H8C3.6-2,0,1.6,0,6h2c0-3.3,2.7-6,6-6h12C23.3,0,26,2.7,26,6z"/>
</g>
</svg> 