<?xml version="1.0" encoding="utf-8"?>
<svg version="1.1" xmlns="http://www.w3.org/2000/svg" xmlns:xlink="http://www.w3.org/1999/xlink" x="0px" y="0px"
     viewBox="0 0 32 32" style="enable-background:new 0 0 32 32;" xml:space="preserve">
<style type="text/css">
	.Blue{fill:#1177D7;}
	.Red{fill:#D11C1C;}
	.Yellow{fill:#FFB115;}
	.Black{fill:#727272;}
	.st0{opacity:0.5;}
</style>
<g>
	<path class="Red" d="M27,6h-6V5c0-0.6-0.4-1-1-1h-8c-0.6,0-1,0.4-1,1v1H5C4.4,6,4,6.4,4,7v4h24V7C28,6.4,27.6,6,27,6z M13,6h6V5h-6
		V6z"/>
	<path class="Red" d="M6,26c0,0.6,0.4,1,1,1h18c0.6,0,1-0.4,1-1V13H6V26z M19,18c0-0.6,0.4-1,1-1s1,0.4,1,1v6c0,0.6-0.4,1-1,1
		s-1-0.4-1-1V18z M15,18c0-0.6,0.4-1,1-1s1,0.4,1,1v6c0,0.6-0.4,1-1,1s-1-0.4-1-1V18z M11,18c0-0.6,0.4-1,1-1s1,0.4,1,1v6
		c0,0.6-0.4,1-1,1s-1-0.4-1-1V18z"/>
</g>
</svg> 