<?xml version="1.0" encoding="utf-8"?>
<svg version="1.1" xmlns="http://www.w3.org/2000/svg" xmlns:xlink="http://www.w3.org/1999/xlink" x="0px" y="0px"
     viewBox="0 0 32 32" style="enable-background:new 0 0 32 32;" xml:space="preserve">
<style type="text/css">
	.Blue{fill:#1177D7;}
	.Green{fill:#039C23;}
	.Yellow{fill:#FFB115;}
	.Black{fill:#727272;}
	.st0{opacity:0.5;}
</style>
<g>
	<path class="Blue" d="M29.1,7.2l-4.3-4.3c-0.6-0.6-1.5-0.6-2.1,0l-1.4,1.4L11,14.6l-1,5.7l5.7-1l10.3-10.3l1.4-1.4
		C29.7,8.7,29.7,7.8,29.1,7.2z M14.5,17.7l-2.1,0.4l0.4-2.1l9.1-9.1l1.8,1.8L14.5,17.7z"/>
	<path class="Blue" d="M22,20v6H6V10h6V4H5C4.4,4,4,4.4,4,5v22c0,0.6,0.4,1,1,1h18c0.6,0,1-0.4,1-1v-7H22z"/>
</g>
</svg> 